#!OML:ASF E:/inclinewalkrobotboard/Project1/Captureday1/Session1/subject1.ASF
:FULLY-SPECIFIED
:DEGREES
219
root 0 0 0 -2.1566311713612105 -3.780834826589004 0.5090741983163358
lowerback 7.464582728094319 1.61021087647143 -2.5139947839259316
upperback 1.926567825137861 2.000339335788628 -0.08029469894200947
thorax -2.2133991994288085 1.0533174014258395 1.2118924974142917
lowerneck -9.0753733716884 -5.527734386619867 -6.472351432753593
upperneck 30.935752499499962 -8.668827276677838 6.112018405585222
head 11.565175928086227 -3.9570496829298127 2.0300879657877284
rclavicle -2.764317023052708E-15 1.7502484074266609E-15
rhumerus -10.114297209284803 4.1838472607214365 -79.99621477530154
rradius 51.7264878945452
rwrist -21.45273329505515
rhand -41.8922183292294 15.2801843531192
rfingers 7.125019999999952
rthumb -14.759639664817376 -14.148314103942127
lclavicle -6.662491913117167E-15 1.4047794902364887E-15
lhumerus -30.851021122863813 11.57623331710482 77.40543640418132
lradius 24.789410989553893
lwrist -4.8149709021004385
lhand -24.07317916128592 22.000773796993467
lfingers 7.125019999999954
lthumb 2.407560175974046 51.936263173043436
rfemur 2.4663760250617863 8.479974103952186 34.61752052277983
rtibia 26.220550173295017
rfoot -21.125689077086932 -9.207618659616376
rtoes 4.262488747550576
lfemur -31.649969367006435 2.0029272328960257 -12.800971467456165
ltibia 46.086187714989016
lfoot -5.861019822187305 -2.9509557516934724
ltoes -6.457573471147782
220
root 0 0 0 -2.12527221509304 -3.7455983763798724 0.513086299887509
lowerback 7.508494361045243 1.6180289716837721 -2.5253771889178798
upperback 1.943275300298584 2.008601057500726 -0.08347806431827409
thorax -2.2221122524343397 1.0577179916063584 1.2123811196005483
lowerneck -9.079358784805994 -5.541889791217616 -6.49610610353961
upperneck 30.881555672929274 -8.678727837304056 6.165299283084908
head 11.551794089268766 -3.961996268188784 2.051872835408287
rclavicle -2.4660888132605988E-15 1.7085318248917833E-15
rhumerus -9.999418746411433 4.002857675834398 -79.98439536276292
rradius 51.404040706249724
rwrist -21.37689137225531
rhand -41.9116340960964 15.41816658899744
rfingers 7.125019999999951
rthumb -14.7754552192484 -14.009150921251923
lclavicle -6.469847585107611E-15 1.3939745974589011E-15
lhumerus -30.941551682157048 11.72368012347688 77.21767455151365
lradius 24.761659821294703
lwrist -4.857441252966113
lhand -24.201194522694188 21.941103812118154
lfingers 7.125019999999955
lthumb 2.284737189584205 51.87833913540028
rfemur 2.7473043409818474 8.484887775815661 34.637894722968724
rtibia 26.358312678988774
rfoot -21.002535853022565 -9.150130035147258
rtoes 3.859518418941086
lfemur -32.124535371085244 1.4709873749078621 -12.890688328949713
ltibia 42.543637145316346
lfoot -5.535130212519753 -3.124431222171294
ltoes -5.904699175931469
221
root 0 0 0 -2.109827393911261 -3.726435842999297 0.5124152403990196
lowerback 7.543596169217906 1.6192267422561606 -2.5315081329555205
upperback 1.9409941034050346 2.009124137886233 -0.08219721026368398
thorax -2.2460936135471976 1.0576618499228396 1.2159939601452558
lowerneck -9.119458572032384 -5.547510157536995 -6.498653645238292
upperneck 30.867006289673316 -8.6788547390177 6.18464768144303
head 11.55166647111142 -3.9616627353130265 2.061034053564238
rclavicle -2.1635571937332204E-15 1.6520132747723813E-15
rhumerus -9.781333526198331 3.6891784195568595 -79.95080597061394
rradius 50.95208526638999
rwrist -21.263481531423054
rhand -41.943518377049365 15.581394877536692
rfingers 7.12501999999995
rthumb -14.80228381251014 -13.843327758938125
lclavicle -6.272997119624791E-15 1.3490790892095276E-15
lhumerus -31.000411595983238 11.83614766548544 77.08695714358109
lradius 24.741240395737456
lwrist -4.888963799969765
lhand -24.295431456499486 21.893349044448783
lfingers 7.125019999999956
lthumb 2.19440831513716 51.83210133697259
rfemur 2.618663269327515 8.45981892549899 34.6217515824646
rtibia 26.83669185453936
rfoot -20.664987963273898 -9.079627865568916
rtoes 3.520944603419121
lfemur -32.1520625389532 1.1197039867017597 -13.128226876019415
ltibia 40.26075708552977
lfoot -5.034542243123584 -3.586033140998472
ltoes -5.269000502606019
222
root 0 0 0 -2.1043628986882608 -3.719540053282458 0.5091547485308403
lowerback 7.5724603241129325 1.6159005151901507 -2.5343143242304587
upperback 1.9280500998590235 2.0043015547774683 -0.0780118956542778
thorax -2.2778853223276196 1.0546245010476496 1.2218771273262585
lowerneck -9.177215342948227 -5.547495572624335 -6.487739993552155
upperneck 30.877184057494937 -8.672966923180589 6.182711755895428
head 11.559146442244185 -3.9581954498465843 2.0621758323088097
rclavicle -1.901665624943859E-15 1.5932807250602431E-15
rhumerus -9.492574843556529 3.2921311860908347 -79.90038958759379
rradius 50.43861335148671
rwrist -21.128622275226054
rhand -41.98270421664668 15.749125094579188
rfingers 7.125019999999949
rthumb -14.835896775104445 -13.671969190841857
lclavicle -6.100128490724566E-15 1.284551444832236E-15
lhumerus -31.024138551857426 11.905693210064282 77.02212065060546
lradius 24.732290224168878
lwrist -4.9035181930628085
lhand -24.35266063501453 21.86042916447477
lfingers 7.125019999999957
lthumb 2.1396165447831157 51.80031275034734
rfemur 1.9546482445424762 8.401772706198958 34.554262165536635
rtibia 27.69781079640186
rfoot -20.112455550219206 -9.042511064606618
rtoes 3.3590869751847214
lfemur -31.829506175256697 0.9582834430662945 -13.479310518650745
ltibia 39.24827405165288
lfoot -4.4879345929910315 -4.2106553621426865
ltoes -4.642993433278963
223
root 0 0 0 -2.108957431435353 -3.730124436762183 0.5026242712081059
lowerback 7.601869800273283 1.6052080264862503 -2.534802956309401
upperback 1.9012985193328413 1.9902633188999708 -0.06867690006719429
thorax -2.325091564970031 1.0465650780863631 1.2335113628845855
lowerneck -9.263471960949708 -5.540720949311788 -6.457863913688237
upperneck 30.924770623633847 -8.659343626932824 6.15485454002077
head 11.578218208350176 -3.95073127966205 2.0537714829711478
rclavicle -1.637458867968806E-15 1.5174928918732052E-15
rhumerus -9.013518396189816 2.660168881637297 -79.80360646508143
rradius 49.681927976739885
rwrist -20.93125460364776
rhand -42.029981430912834 15.970047150363463
rfingers 7.125019999999947
rthumb -14.875876482243807 -13.445586725102928
lclavicle -5.928938038638345E-15 1.1794515301481451E-15
lhumerus -31.004684881040934 11.949547561401939 77.02708647830643
lradius 24.75249315586887
lwrist -4.8754931962256745
lhand -24.407246132504607 21.82770259477368
lfingers 7.125019999999957
lthumb 2.087291975003767 51.76863996067101
rfemur -0.5016963732416508 8.246770448463895 34.28957728557115
rtibia 29.798456894918914
rfoot -18.82581585671661 -9.155737080667798
rtoes 3.665352692797875
lfemur -30.831930956589872 1.0097934013114411 -14.13268298435748
ltibia 39.623611739615356
lfoot -3.7867794772843757 -5.268832410727741
ltoes -3.9202251907475505
